# ShapeML export
v 0 -1.2 0
v 0.05 0 0
v 0.05 -1.2 0
v 0 0 0
v 0.05 -1.2 0.05
v 0.05 0 0.05
v 0 0 0.05
v 0 -1.2 0.05
v 0.75 -1.15 0
v 0.75 -1.2 0
v 0.05 -1.15 0
v 0.05 -1.2 0
v 0.75 -1.15 0.05
v 0.05 -1.15 0.05
v 0.05 -1.2 0.05
v 0.75 -1.2 0.05
v 0.3875 -0.775 0
v 0.05 -0.775 0
v 0.05 -0.8 0
v 0.3875 -0.8 0
v 0.3875 -0.775 0.025
v 0.05 -0.775 0.025
v 0.05 -0.8 0.025
v 0.3875 -0.8 0.025
v 0.3875 -0.4 0
v 0.05 -0.4 0
v 0.05 -0.425 0
v 0.3875 -0.425 0
v 0.3875 -0.4 0.025
v 0.05 -0.4 0.025
v 0.05 -0.425 0.025
v 0.3875 -0.425 0.025
v 0.3875 -0.05 0
v 0.4125 -0.05 0
v 0.4125 -1.15 0
v 0.3875 -1.15 0
v 0.4125 -1.15 0.025
v 0.4125 -0.05 0.025
v 0.3875 -0.05 0.025
v 0.3875 -1.15 0.025
v 0.75 -0.775 0
v 0.4125 -0.8 0
v 0.4125 -0.775 0
v 0.75 -0.8 0
v 0.75 -0.775 0.025
v 0.4125 -0.775 0.025
v 0.4125 -0.8 0.025
v 0.75 -0.8 0.025
v 0.75 -0.4 0
v 0.4125 -0.425 0
v 0.4125 -0.4 0
v 0.75 -0.425 0
v 0.75 -0.4 0.025
v 0.4125 -0.4 0.025
v 0.4125 -0.425 0.025
v 0.75 -0.425 0.025
v 0.05 0 0
v 0.05 -0.05 0
v 0.75 0 0
v 0.75 -0.05 0
v 0.05 -0.05 0.05
v 0.75 -0.05 0.05
v 0.75 0 0.05
v 0.05 0 0.05
v 0.75 -1.2 0
v 0.8 -1.2 0
v 0.8 0 0
v 0.75 0 0
v 0.75 0 0.05
v 0.75 -1.2 0.05
v 0.8 -1.2 0.05
v 0.8 0 0.05

vn 0 -1 0
vn 0 0 1
vn -0 -0 -1
vn 1 -2.89121e-17 0
vn 0 1 0
vn -1 0 0


usemtl Material_0
f 8//1 1//1 3//1
f 8//1 3//1 5//1
f 5//2 6//2 7//2
f 8//2 5//2 7//2
f 4//3 2//3 3//3
f 3//3 1//3 4//3
f 5//4 3//4 2//4
f 5//4 2//4 6//4
f 6//5 2//5 4//5
f 6//5 4//5 7//5
f 7//6 4//6 1//6
f 7//6 1//6 8//6
f 16//4 10//4 9//4
f 16//4 9//4 13//4
f 14//2 15//2 16//2
f 16//2 13//2 14//2
f 10//3 12//3 11//3
f 9//3 10//3 11//3
f 13//5 9//5 11//5
f 13//5 11//5 14//5
f 14//6 11//6 12//6
f 14//6 12//6 15//6
f 15//1 12//1 10//1
f 15//1 10//1 16//1
f 24//4 20//4 17//4
f 24//4 17//4 21//4
f 22//2 23//2 24//2
f 24//2 21//2 22//2
f 20//3 19//3 18//3
f 17//3 20//3 18//3
f 21//5 17//5 18//5
f 21//5 18//5 22//5
f 22//6 18//6 19//6
f 22//6 19//6 23//6
f 23//1 19//1 20//1
f 23//1 20//1 24//1
f 32//4 28//4 25//4
f 32//4 25//4 29//4
f 30//2 31//2 32//2
f 32//2 29//2 30//2
f 28//3 27//3 26//3
f 25//3 28//3 26//3
f 29//5 25//5 26//5
f 29//5 26//5 30//5
f 30//6 26//6 27//6
f 30//6 27//6 31//6
f 31//1 27//1 28//1
f 31//1 28//1 32//1
f 40//1 36//1 35//1
f 40//1 35//1 37//1
f 40//2 37//2 38//2
f 40//2 38//2 39//2
f 35//3 36//3 33//3
f 35//3 33//3 34//3
f 37//4 35//4 34//4
f 37//4 34//4 38//4
f 38//5 34//5 33//5
f 38//5 33//5 39//5
f 39//6 33//6 36//6
f 39//6 36//6 40//6
f 48//4 44//4 41//4
f 48//4 41//4 45//4
f 48//2 45//2 46//2
f 48//2 46//2 47//2
f 41//3 44//3 42//3
f 41//3 42//3 43//3
f 45//5 41//5 43//5
f 45//5 43//5 46//5
f 46//6 43//6 42//6
f 46//6 42//6 47//6
f 47//1 42//1 44//1
f 47//1 44//1 48//1
f 56//4 52//4 49//4
f 56//4 49//4 53//4
f 56//2 53//2 54//2
f 56//2 54//2 55//2
f 49//3 52//3 50//3
f 49//3 50//3 51//3
f 53//5 49//5 51//5
f 53//5 51//5 54//5
f 54//6 51//6 50//6
f 54//6 50//6 55//6
f 55//1 50//1 52//1
f 55//1 52//1 56//1
f 64//6 57//6 58//6
f 64//6 58//6 61//6
f 64//2 61//2 62//2
f 64//2 62//2 63//2
f 60//3 58//3 57//3
f 60//3 57//3 59//3
f 61//1 58//1 60//1
f 61//1 60//1 62//1
f 62//4 60//4 59//4
f 62//4 59//4 63//4
f 63//5 59//5 57//5
f 63//5 57//5 64//5
f 72//5 67//5 68//5
f 72//5 68//5 69//5
f 72//2 69//2 70//2
f 72//2 70//2 71//2
f 68//3 67//3 66//3
f 68//3 66//3 65//3
f 69//6 68//6 65//6
f 69//6 65//6 70//6
f 70//1 65//1 66//1
f 70//1 66//1 71//1
f 71//4 66//4 67//4
f 71//4 67//4 72//4
