v -0.105924 2.340619 0.228057
v 0.105924 2.340619 0.228057
v -0.105924 2.398774 0.262047
v 0.105924 2.398774 0.262047
v -0.105924 2.398774 -0.000047
v 0.105924 2.398774 -0.000047
v -0.105924 2.186926 -0.000047
v 0.105924 2.186926 -0.000047
v -0.105924 2.371336 0.259091
v 0.105924 2.371337 0.259091
v -0.105924 2.203182 0.050500
v 0.105924 2.203182 0.050501
v -0.105924 2.299482 0.118626
v 0.105924 2.299523 0.118628
vn 0.000001 -0.433991 0.900917
vn 0.000001 -0.433991 0.900917
vn 0.000000 -0.107101 0.994248
vn 0.000000 -0.107101 0.994248
vn 0.000000 1.000000 0.000000
vn 0.000000 1.000000 0.000000
vn 0.000000 1.000000 0.000000
vn 0.000000 1.000000 0.000000
vn 0.000075 -0.791642 0.610985
vn 0.000075 -0.791642 0.610985
vn 0.000047 -0.841987 0.539498
vn 0.000047 -0.841987 0.539498
vn 1.000000 0.000000 0.000000
vn 1.000000 0.000000 0.000000
vn 1.000000 0.000000 0.000000
vn 1.000000 0.000000 0.000000
vn 1.000000 0.000000 0.000000
vn 1.000000 0.000000 0.000000
vn 1.000000 0.000000 0.000000
vn -1.000000 0.000000 0.000000
vn -1.000000 0.000000 0.000000
vn -1.000000 0.000000 0.000000
vn -1.000000 0.000000 0.000000
vn -1.000000 0.000000 0.000000
vn -1.000000 0.000000 0.000000
vn -1.000000 0.000000 0.000000
vn -0.000000 -0.951982 0.306154
vn -0.000000 -0.951982 0.306154
vn 0.000028 -0.806155 0.591705
vn 0.000028 -0.806155 0.591705
f 9//1 10//2 4//3 3//4
f 3//5 4//6 6//7 5//8
f 13//9 14//10 2//11 1//12
f 12//13 8//14 6//15 14//16
f 4//17 10//18 6//15
f 6//15 10//18 2//19 14//16
f 5//20 7//21 11//22 13//23
f 3//24 5//20 9//25
f 1//26 9//25 5//20 13//23
f 1//12 2//11 10//2 9//1
f 7//27 8//28 12//29 11//30
f 11//30 12//29 14//10 13//9
