
v -1.194221 5.117621 -0.778169
v -1.194221 5.117621 0.145533
v -1.200000 5.000000 0.145533
v -1.200000 5.000000 -0.778169
v -1.176942 5.234108 -0.778169
v -1.176942 5.234108 0.145533
v -1.148328 5.348342 -0.778169
v -1.148328 5.348342 0.145533
v -1.108655 5.459221 -0.778169
v -1.108655 5.459221 0.145533
v -1.058305 5.565676 -0.778169
v -1.058305 5.565676 0.145533
v -0.997763 5.666684 -0.778169
v -0.997763 5.666684 0.145533
v -0.927612 5.761272 -0.778169
v -0.927612 5.761272 0.145533
v -0.848528 5.848528 -0.778169
v -0.848528 5.848528 0.145533
v -0.761272 5.927612 -0.778169
v -0.761272 5.927612 0.145533
v -0.666684 5.997764 -0.778169
v -0.666684 5.997764 0.145533
v -0.565676 6.058305 -0.778169
v -0.565676 6.058305 0.145533
v -0.459220 6.108655 -0.778169
v -0.459220 6.108655 0.145533
v -0.348342 6.148328 -0.778169
v -0.348342 6.148328 0.145533
v -0.234108 6.176942 -0.778169
v -0.234108 6.176942 0.145533
v -0.117621 6.194221 -0.778169
v -0.117621 6.194221 0.145533
v 0.000000 6.200000 -0.778169
v 0.000000 6.200000 0.145533
v 0.117621 6.194221 -0.778169
v 0.117621 6.194221 0.145533
v 0.234108 6.176942 -0.778169
v 0.234108 6.176942 0.145533
v 0.348342 6.148328 -0.778169
v 0.348342 6.148328 0.145533
v 0.459220 6.108655 -0.778169
v 0.459220 6.108655 0.145533
v 0.565676 6.058305 -0.778169
v 0.565676 6.058305 0.145533
v 0.666684 5.997763 -0.778169
v 0.666684 5.997763 0.145533
v 0.761272 5.927612 -0.778169
v 0.761272 5.927612 0.145533
v 0.848528 5.848528 -0.778169
v 0.848528 5.848528 0.145533
v 0.927612 5.761272 -0.778169
v 0.927612 5.761272 0.145533
v 0.997763 5.666684 -0.778169
v 0.997763 5.666684 0.145533
v 1.058305 5.565676 -0.778169
v 1.058305 5.565676 0.145533
v 1.200000 5.000000 -0.778169
v 1.200000 5.000000 0.145533
v 1.194221 5.117621 0.145533
v 1.194221 5.117621 -0.778169
v 1.176942 5.234108 0.145533
v 1.176942 5.234108 -0.778169
v 1.148328 5.348342 0.145533
v 1.148328 5.348342 -0.778169
v 1.108655 5.459221 0.145533
v 1.108655 5.459221 -0.778169
v -1.380000 5.000000 0.144568
v -1.500000 5.000000 0.196753
v -1.500000 5.000000 -0.778169
v 1.492777 5.147026 -0.778169
v 1.471178 5.292635 -0.778169
v 1.471178 5.292635 0.196753
v 1.492777 5.147026 0.196753
v 1.435410 5.435427 -0.778169
v 1.435410 5.435427 0.196753
v 1.385819 5.574025 -0.778169
v 1.385819 5.574025 0.196753
v 1.322882 5.707095 -0.778169
v 1.322882 5.707095 0.196753
v 1.247204 5.833355 -0.778169
v 1.247204 5.833355 0.196753
v 1.159516 5.951589 -0.778169
v 1.159516 5.951589 0.196753
v 1.060660 6.060660 -0.778169
v 1.060660 6.060660 0.196753
v 0.951590 6.159515 -0.778169
v 0.951590 6.159515 0.196753
v 0.833355 6.247204 -0.778169
v 0.833355 6.247204 0.196753
v 0.707095 6.322881 -0.778169
v 0.707095 6.322881 0.196753
v 0.574025 6.385819 -0.778169
v 0.574025 6.385819 0.196753
v 0.435427 6.435410 -0.778169
v 0.435427 6.435410 0.196753
v 0.292635 6.471177 -0.778169
v 0.292635 6.471177 0.196753
v 0.147026 6.492777 -0.778169
v 0.147026 6.492777 0.196753
v 0.000000 6.500000 -0.778169
v 0.000000 6.500000 0.196753
v -0.147026 6.492777 -0.778169
v -0.147026 6.492777 0.196753
v -0.292635 6.471177 -0.778169
v -0.292635 6.471177 0.196753
v -0.435427 6.435411 -0.778169
v -0.435427 6.435411 0.196753
v -0.574025 6.385819 -0.778169
v -0.574025 6.385819 0.196753
v -0.707095 6.322881 -0.778169
v -0.707095 6.322881 0.196753
v -0.833355 6.247205 -0.778169
v -0.833355 6.247205 0.196753
v -0.951590 6.159515 -0.778169
v -0.951590 6.159515 0.196753
v -1.060660 6.060660 -0.778169
v -1.060660 6.060660 0.196753
v -1.159516 5.951589 -0.778169
v -1.159516 5.951589 0.196753
v -1.247204 5.833355 -0.778169
v -1.247204 5.833355 0.196753
v -1.322882 5.707095 -0.778169
v -1.322882 5.707095 0.196753
v -1.385819 5.574025 -0.778169
v -1.385819 5.574025 0.196753
v -1.435410 5.435427 -0.778169
v -1.435410 5.435427 0.196753
v -1.471178 5.292635 -0.778169
v -1.471178 5.292635 0.196753
v -1.492777 5.147026 -0.778169
v -1.492777 5.147026 0.196753
v 1.500000 5.000000 0.196753
v 1.500000 5.000000 -0.778169
v 1.373354 5.135264 0.144568
v 1.380000 5.000000 0.144568
v 1.353483 5.269225 0.144568
v 1.320577 5.400592 0.144568
v 1.274954 5.528104 0.144568
v 1.217051 5.650527 0.144568
v 1.147428 5.766686 0.144568
v 1.066754 5.875463 0.144568
v 0.975807 5.975807 0.144568
v 0.875462 6.066754 0.144568
v 0.766687 6.147427 0.144568
v 0.650527 6.217051 0.144568
v 0.528103 6.274954 0.144568
v 0.400593 6.320577 0.144568
v 0.269225 6.353483 0.144568
v 0.135264 6.373354 0.144568
v 0.000000 6.379999 0.144568
v -0.135264 6.373354 0.144568
v -0.269225 6.353483 0.144568
v -0.400593 6.320577 0.144568
v -0.528103 6.274954 0.144568
v -0.650527 6.217051 0.144568
v -0.766687 6.147428 0.144568
v -0.875462 6.066754 0.144568
v -0.975807 5.975807 0.144568
v -1.066754 5.875463 0.144568
v -1.147428 5.766686 0.144568
v -1.217051 5.650527 0.144568
v -1.274954 5.528104 0.144568
v -1.320577 5.400592 0.144568
v -1.353483 5.269225 0.144568
v -1.373354 5.135264 0.144568
v -1.200000 5.000000 -0.778169
v -1.200000 5.000000 0.145533
v -1.200000 1.321392 0.145532
v -1.200000 1.321392 -0.778170
v 1.200000 1.321392 -0.778170
v 1.200000 1.321392 0.145532
v 1.200000 5.000000 0.145533
v 1.200000 5.000000 -0.778169
v -1.500000 1.321392 -0.778170
v -1.500000 1.321392 0.196752
v -1.500000 5.000000 0.196753
v -1.500000 5.000000 -0.778169
v 1.500000 1.321392 0.196752
v 1.500000 1.321392 -0.778170
v 1.500000 5.000000 -0.778169
v 1.500000 5.000000 0.196753
v 1.379783 5.000000 0.144568
v -1.379783 1.321392 0.144567
v -1.379783 5.000000 0.144568
v 1.379783 1.321392 0.144567
v -1.141645 5.115730 -0.159661
v -1.141645 5.115730 -0.049733
v -1.147169 5.003288 -0.049733
v -1.147169 5.003288 -0.159661
v -1.125127 5.227089 -0.159661
v -1.125127 5.227089 -0.049733
v -1.097772 5.336293 -0.159661
v -1.097772 5.336293 -0.049733
v -1.059846 5.442291 -0.159661
v -1.059846 5.442291 -0.049733
v -1.011713 5.544059 -0.159661
v -1.011713 5.544059 -0.049733
v -0.953836 5.640621 -0.159661
v -0.953836 5.640621 -0.049733
v -0.886774 5.731044 -0.159661
v -0.886774 5.731044 -0.049733
v -0.811171 5.814459 -0.159661
v -0.811171 5.814459 -0.049733
v -0.727756 5.890062 -0.159661
v -0.727756 5.890062 -0.049733
v -0.637333 5.957124 -0.159661
v -0.637333 5.957124 -0.049733
v -0.540772 6.015001 -0.159661
v -0.540772 6.015001 -0.049733
v -0.439003 6.063134 -0.159661
v -0.439003 6.063134 -0.049733
v -0.333006 6.101060 -0.159661
v -0.333006 6.101060 -0.049733
v -0.223802 6.128414 -0.159661
v -0.223802 6.128414 -0.049733
v -0.112442 6.144933 -0.159661
v -0.112442 6.144933 -0.049733
v 0.000000 6.150457 -0.159661
v 0.000000 6.150457 -0.049733
v 0.112442 6.144933 -0.159661
v 0.112442 6.144933 -0.049733
v 0.223802 6.128414 -0.159661
v 0.223802 6.128414 -0.049733
v 0.333006 6.101060 -0.159661
v 0.333006 6.101060 -0.049733
v 0.439003 6.063134 -0.159661
v 0.439003 6.063134 -0.049733
v 0.540772 6.015001 -0.159661
v 0.540772 6.015001 -0.049733
v 0.637333 5.957124 -0.159661
v 0.637333 5.957124 -0.049733
v 0.727756 5.890062 -0.159661
v 0.727756 5.890062 -0.049733
v 0.811171 5.814459 -0.159661
v 0.811171 5.814459 -0.049733
v 0.886774 5.731044 -0.159661
v 0.886774 5.731044 -0.049733
v 0.953836 5.640621 -0.159661
v 0.953836 5.640621 -0.049733
v 1.011713 5.544059 -0.159661
v 1.011713 5.544059 -0.049733
v 1.147169 5.003288 -0.159661
v 1.147169 5.003288 -0.049733
v 1.141645 5.115730 -0.049733
v 1.141645 5.115730 -0.159661
v 1.125127 5.227089 -0.049733
v 1.125127 5.227089 -0.159661
v 1.097772 5.336293 -0.049733
v 1.097772 5.336293 -0.159661
v 1.059846 5.442291 -0.049733
v 1.059846 5.442291 -0.159661
v -1.433961 5.003288 -0.049733
v -1.433961 5.003288 -0.159661
v 1.433962 5.003288 -0.049733
v 1.427056 5.143840 -0.049733
v 1.406408 5.283040 -0.049733
v 1.372216 5.419545 -0.049733
v 1.324808 5.552041 -0.049733
v 1.264641 5.679252 -0.049733
v 1.192295 5.799954 -0.049733
v 1.108467 5.912983 -0.049733
v 1.013964 6.017252 -0.049733
v 0.909695 6.111755 -0.049733
v 0.796666 6.195583 -0.049733
v 0.675965 6.267929 -0.049733
v 0.548753 6.328095 -0.049733
v 0.416257 6.375503 -0.049733
v 0.279752 6.409696 -0.049733
v 0.140553 6.430344 -0.049733
v 0.000000 6.437249 -0.049733
v -0.140553 6.430344 -0.049733
v -0.279752 6.409696 -0.049733
v -0.416257 6.375504 -0.049733
v -0.548753 6.328095 -0.049733
v -0.675965 6.267929 -0.049733
v -0.796666 6.195583 -0.049733
v -0.909695 6.111755 -0.049733
v -1.013964 6.017252 -0.049733
v -1.108467 5.912983 -0.049733
v -1.192295 5.799954 -0.049733
v -1.264641 5.679252 -0.049733
v -1.324808 5.552041 -0.049733
v -1.372216 5.419545 -0.049733
v -1.406408 5.283040 -0.049733
v -1.427057 5.143840 -0.049733
v 1.433962 5.003288 -0.159661
v -1.147169 5.003288 -0.159661
v -1.147169 5.003288 -0.049733
v -1.147169 1.321387 -0.049734
v -1.147169 1.321387 -0.159662
v 1.147169 1.321387 -0.159662
v 1.147169 1.321387 -0.049734
v 1.147169 5.003288 -0.049733
v 1.147169 5.003288 -0.159661
v -1.433962 5.003288 -0.159661
v -1.433962 5.003288 -0.049733
v 1.433962 5.003288 -0.049733
v 1.433962 5.003288 -0.159661
v -1.433962 1.321387 -0.049734
v 1.433962 1.321387 -0.049734
v -1.200000 1.321366 0.000523
v 1.200000 1.321366 0.000523
v 1.200000 1.428926 0.000523
v -1.200000 1.428926 0.000523
v 1.200000 1.428926 -0.118944
v -1.200000 1.428926 -0.118944
v -1.200000 1.321366 -0.118944
v 1.200000 1.321366 -0.118944
v -1.200000 2.548322 -0.097191
v 1.200000 2.548322 -0.097191
v 1.200000 2.606602 -0.097191
v -1.200000 2.606602 -0.097191
v 1.200000 2.606602 -0.150263
v -1.200000 2.606602 -0.150263
v -1.200000 2.548322 -0.150263
v 1.200000 2.548322 -0.150263
v -1.200000 3.761357 -0.097190
v 1.200000 3.761357 -0.097190
v 1.200000 3.807480 -0.097190
v -1.200000 3.807480 -0.097190
v 1.200000 3.807480 -0.150262
v -1.200000 3.807480 -0.150262
v -1.200000 3.761357 -0.150262
v 1.200000 3.761357 -0.150262
v -1.200000 4.906357 -0.030633
v 1.200000 4.906357 -0.030633
v 1.200000 5.043381 -0.030633
v -1.200000 5.043381 -0.030633
v 1.200000 5.043381 -0.150100
v -1.200000 5.043381 -0.150100
v -1.200000 4.906357 -0.150100
v 1.200000 4.906357 -0.150100
v -0.050000 1.321392 -0.048088
v 0.050000 1.321392 -0.048088
v 0.050000 6.223154 -0.048087
v -0.050000 6.223154 -0.048087
v 0.050000 6.223154 -0.148087
v -0.050000 6.223154 -0.148087
v -0.050000 1.321392 -0.148088
v 0.050000 1.321392 -0.148088
vn 0.9988 -0.0491 0.0000
vn 0.9808 -0.1951 0.0000
vn 0.9952 -0.0980 0.0000
vn 0.9569 -0.2903 0.0000
vn 0.9239 -0.3827 0.0000
vn 0.8819 -0.4714 0.0000
vn 0.8315 -0.5556 0.0000
vn 0.7730 -0.6344 0.0000
vn 0.7071 -0.7071 0.0000
vn 0.6344 -0.7730 0.0000
vn 0.5556 -0.8315 0.0000
vn 0.4714 -0.8819 0.0000
vn 0.3827 -0.9239 0.0000
vn 0.2903 -0.9569 0.0000
vn 0.1951 -0.9808 0.0000
vn 0.0980 -0.9952 0.0000
vn 0.0000 -1.0000 0.0000
vn -0.0980 -0.9952 0.0000
vn -0.1951 -0.9808 0.0000
vn -0.2903 -0.9569 0.0000
vn -0.3827 -0.9239 0.0000
vn -0.4714 -0.8819 0.0000
vn -0.5556 -0.8315 0.0000
vn -0.6344 -0.7730 0.0000
vn -0.7071 -0.7071 0.0000
vn -0.7730 -0.6344 0.0000
vn -0.8315 -0.5556 0.0000
vn -0.8819 -0.4714 0.0000
vn -0.9988 -0.0491 0.0000
vn -0.9952 -0.0980 0.0000
vn -0.9808 -0.1951 0.0000
vn -0.9569 -0.2903 0.0000
vn -0.9239 -0.3827 0.0000
vn 0.9952 0.0980 0.0000
vn 0.9808 0.1951 0.0000
vn 0.9569 0.2903 0.0000
vn 0.9239 0.3827 0.0000
vn 0.8819 0.4714 0.0000
vn 0.8315 0.5556 0.0000
vn 0.7730 0.6344 0.0000
vn 0.7071 0.7071 0.0000
vn 0.6344 0.7730 0.0000
vn 0.5556 0.8315 0.0000
vn 0.4714 0.8819 0.0000
vn 0.3827 0.9239 0.0000
vn 0.2903 0.9569 0.0000
vn 0.1951 0.9808 0.0000
vn 0.0980 0.9952 0.0000
vn 0.0000 1.0000 0.0000
vn -0.0980 0.9952 0.0000
vn -0.1951 0.9808 0.0000
vn -0.2903 0.9569 0.0000
vn -0.3827 0.9239 0.0000
vn -0.4714 0.8819 0.0000
vn -0.5556 0.8315 0.0000
vn -0.6344 0.7730 0.0000
vn -0.7071 0.7071 0.0000
vn -0.7730 0.6344 0.0000
vn -0.8315 0.5556 0.0000
vn -0.8819 0.4714 0.0000
vn -0.9239 0.3827 0.0000
vn -0.9569 0.2903 0.0000
vn -0.9808 0.1951 0.0000
vn -0.9952 0.0980 0.0000
vn -0.9988 0.0491 0.0000
vn 0.9988 0.0491 0.0000
vn -0.2000 -0.0197 0.9796
vn -0.2010 -0.0099 0.9795
vn -0.3987 -0.0196 0.9169
vn -0.3969 -0.0391 0.9170
vn -0.1972 -0.0392 0.9796
vn -0.3911 -0.0778 0.9170
vn -0.1924 -0.0584 0.9796
vn -0.3816 -0.1158 0.9170
vn -0.1857 -0.0769 0.9796
vn -0.3684 -0.1526 0.9170
vn -0.1773 -0.0948 0.9796
vn -0.3517 -0.1880 0.9170
vn -0.1671 -0.1117 0.9796
vn -0.3316 -0.2216 0.9170
vn -0.1554 -0.1275 0.9796
vn -0.3083 -0.2530 0.9170
vn -0.1421 -0.1421 0.9796
vn -0.2820 -0.2820 0.9170
vn -0.1275 -0.1554 0.9796
vn -0.2530 -0.3083 0.9170
vn -0.1117 -0.1671 0.9796
vn -0.2216 -0.3316 0.9170
vn -0.0948 -0.1773 0.9796
vn -0.1880 -0.3517 0.9170
vn -0.0769 -0.1857 0.9796
vn -0.1526 -0.3684 0.9170
vn -0.0584 -0.1924 0.9796
vn -0.1158 -0.3816 0.9170
vn -0.0392 -0.1972 0.9796
vn -0.0778 -0.3911 0.9170
vn -0.0197 -0.2001 0.9796
vn -0.0391 -0.3969 0.9170
vn 0.0000 -0.2011 0.9796
vn 0.0000 -0.3988 0.9170
vn 0.0197 -0.2000 0.9796
vn 0.0391 -0.3969 0.9170
vn 0.0392 -0.1971 0.9796
vn 0.0778 -0.3911 0.9170
vn 0.0584 -0.1924 0.9796
vn 0.1158 -0.3816 0.9170
vn 0.0769 -0.1857 0.9796
vn 0.1526 -0.3684 0.9170
vn 0.0948 -0.1773 0.9796
vn 0.1880 -0.3517 0.9170
vn 0.1117 -0.1671 0.9796
vn 0.2216 -0.3316 0.9170
vn 0.1275 -0.1554 0.9796
vn 0.2530 -0.3083 0.9170
vn 0.1421 -0.1421 0.9796
vn 0.2820 -0.2820 0.9170
vn 0.1554 -0.1275 0.9796
vn 0.3083 -0.2530 0.9170
vn 0.1671 -0.1117 0.9796
vn 0.3316 -0.2216 0.9170
vn 0.1773 -0.0948 0.9796
vn 0.3517 -0.1880 0.9170
vn 0.1858 -0.0769 0.9796
vn 0.3684 -0.1526 0.9170
vn 0.1924 -0.0584 0.9796
vn 0.3816 -0.1158 0.9170
vn 0.1972 -0.0392 0.9796
vn 0.3911 -0.0778 0.9170
vn 0.2000 -0.0197 0.9796
vn 0.3969 -0.0391 0.9170
vn 0.2010 -0.0099 0.9795
vn 0.3987 -0.0196 0.9169
vn 1.0000 0.0000 0.0000
vn -1.0000 0.0000 0.0000
vn 0.3982 -0.0000 0.9173
vn 0.2007 -0.0000 0.9796
vn -0.2007 -0.0000 0.9796
vn -0.3982 -0.0000 0.9173
vn -0.0053 0.0005 1.0000
vn -0.0054 0.0003 1.0000
vn -0.0053 0.0010 1.0000
vn -0.0051 0.0016 1.0000
vn -0.0050 0.0021 1.0000
vn -0.0047 0.0025 1.0000
vn -0.0045 0.0030 1.0000
vn -0.0041 0.0034 1.0000
vn -0.0038 0.0038 1.0000
vn -0.0034 0.0041 1.0000
vn -0.0030 0.0045 1.0000
vn -0.0025 0.0047 1.0000
vn -0.0021 0.0050 1.0000
vn -0.0016 0.0051 1.0000
vn -0.0010 0.0053 1.0000
vn -0.0005 0.0053 1.0000
vn -0.0000 0.0054 1.0000
vn 0.0005 0.0053 1.0000
vn 0.0010 0.0053 1.0000
vn 0.0016 0.0051 1.0000
vn 0.0021 0.0050 1.0000
vn 0.0025 0.0047 1.0000
vn 0.0030 0.0045 1.0000
vn 0.0034 0.0041 1.0000
vn 0.0038 0.0038 1.0000
vn 0.0041 0.0034 1.0000
vn 0.0045 0.0030 1.0000
vn 0.0047 0.0025 1.0000
vn 0.0050 0.0021 1.0000
vn 0.0054 0.0003 1.0000
vn 0.0053 0.0005 1.0000
vn 0.0053 0.0010 1.0000
vn 0.0051 0.0016 1.0000
vn -0.0054 -0.0000 1.0000
vn 0.0054 -0.0000 1.0000
vn -0.0000 -0.0000 1.0000
f 1//1 2//1 3//1 4//1
f 5//2 6//2 2//3 1//3
f 7//4 8//4 6//2 5//2
f 9//5 10//5 8//4 7//4
f 11//6 12//6 10//5 9//5
f 13//7 14//7 12//6 11//6
f 15//8 16//8 14//7 13//7
f 17//9 18//9 16//8 15//8
f 19//10 20//10 18//9 17//9
f 21//11 22//11 20//10 19//10
f 23//12 24//12 22//11 21//11
f 25//13 26//13 24//12 23//12
f 27//14 28//14 26//13 25//13
f 29//15 30//15 28//14 27//14
f 31//16 32//16 30//15 29//15
f 33//17 34//17 32//16 31//16
f 35//18 36//18 34//17 33//17
f 37//19 38//19 36//18 35//18
f 39//20 40//20 38//19 37//19
f 41//21 42//21 40//20 39//20
f 43//22 44//22 42//21 41//21
f 45//23 46//23 44//22 43//22
f 47//24 48//24 46//23 45//23
f 49//25 50//25 48//24 47//24
f 51//26 52//26 50//25 49//25
f 53//27 54//27 52//26 51//26
f 55//28 56//28 54//27 53//27
f 57//29 58//29 59//30 60//30
f 60//30 59//30 61//31 62//31
f 62//31 61//31 63//32 64//32
f 64//32 63//32 65//33 66//33
f 66//33 65//33 56//28 55//28
f 4//17 3//17 67//17 68//17 69//17
f 70//34 71//35 72//35 73//34
f 71//35 74//36 75//36 72//35
f 74//36 76//37 77//37 75//36
f 76//37 78//38 79//38 77//37
f 78//38 80//39 81//39 79//38
f 80//39 82//40 83//40 81//39
f 82//40 84//41 85//41 83//40
f 84//41 86//42 87//42 85//41
f 86//42 88//43 89//43 87//42
f 88//43 90//44 91//44 89//43
f 90//44 92//45 93//45 91//44
f 92//45 94//46 95//46 93//45
f 94//46 96//47 97//47 95//46
f 96//47 98//48 99//48 97//47
f 98//48 100//49 101//49 99//48
f 100//49 102//50 103//50 101//49
f 102//50 104//51 105//51 103//50
f 104//51 106//52 107//52 105//51
f 106//52 108//53 109//53 107//52
f 108//53 110//54 111//54 109//53
f 110//54 112//55 113//55 111//54
f 112//55 114//56 115//56 113//55
f 114//56 116//57 117//57 115//56
f 116//57 118//58 119//58 117//57
f 118//58 120//59 121//59 119//58
f 120//59 122//60 123//60 121//59
f 122//60 124//61 125//61 123//60
f 124//61 126//62 127//62 125//61
f 126//62 128//63 129//63 127//62
f 128//63 130//64 131//64 129//63
f 69//65 68//65 131//64 130//64
f 132//66 133//66 70//34 73//34
f 134//67 135//68 132//69 73//70
f 136//71 134//67 73//70 72//72
f 137//73 136//71 72//72 75//74
f 138//75 137//73 75//74 77//76
f 139//77 138//75 77//76 79//78
f 140//79 139//77 79//78 81//80
f 141//81 140//79 81//80 83//82
f 142//83 141//81 83//82 85//84
f 143//85 142//83 85//84 87//86
f 144//87 143//85 87//86 89//88
f 145//89 144//87 89//88 91//90
f 146//91 145//89 91//90 93//92
f 147//93 146//91 93//92 95//94
f 148//95 147//93 95//94 97//96
f 149//97 148//95 97//96 99//98
f 150//99 149//97 99//98 101//100
f 151//101 150//99 101//100 103//102
f 152//103 151//101 103//102 105//104
f 153//105 152//103 105//104 107//106
f 154//107 153//105 107//106 109//108
f 155//109 154//107 109//108 111//110
f 156//111 155//109 111//110 113//112
f 157//113 156//111 113//112 115//114
f 158//115 157//113 115//114 117//116
f 159//117 158//115 117//116 119//118
f 160//119 159//117 119//118 121//120
f 161//121 160//119 121//120 123//122
f 162//123 161//121 123//122 125//124
f 163//125 162//123 125//124 127//126
f 164//127 163//125 127//126 129//128
f 165//129 164//127 129//128 131//130
f 67//131 165//129 131//130 68//132
f 166//133 167//133 168//133 169//133
f 170//134 171//134 172//134 173//134
f 174//134 175//134 176//134 177//134
f 178//133 179//133 180//133 181//133
f 173//49 172//49 182//49 181//49 180//49
f 175//135 183//136 184//136 176//135
f 182//137 185//137 178//138 181//138
f 135//17 58//17 57//17 133//17 132//17
f 184//49 167//49 166//49 177//49 176//49
f 2//139 165//129 67//131 3//140
f 165//129 2//139 6//141 164//127
f 164//127 6//141 8//142 163//125
f 163//125 8//142 10//143 162//123
f 162//123 10//143 12//144 161//121
f 161//121 12//144 14//145 160//119
f 160//119 14//145 16//146 159//117
f 159//117 16//146 18//147 158//115
f 158//115 18//147 20//148 157//113
f 157//113 20//148 22//149 156//111
f 156//111 22//149 24//150 155//109
f 155//109 24//150 26//151 154//107
f 154//107 26//151 28//152 153//105
f 153//105 28//152 30//153 152//103
f 152//103 30//153 32//154 151//101
f 151//101 32//154 34//155 150//99
f 150//99 34//155 36//156 149//97
f 149//97 36//156 38//157 148//95
f 148//95 38//157 40//158 147//93
f 147//93 40//158 42//159 146//91
f 146//91 42//159 44//160 145//89
f 145//89 44//160 46//161 144//87
f 144//87 46//161 48//162 143//85
f 143//85 48//162 50//163 142//83
f 142//83 50//163 52//164 141//81
f 141//81 52//164 54//165 140//79
f 140//79 54//165 56//166 139//77
f 139//77 56//166 65//167 138//75
f 58//168 135//68 134//67 59//169
f 59//169 134//67 136//71 61//170
f 61//170 136//71 137//73 63//171
f 63//171 137//73 138//75 65//167
f 167//172 184//136 183//136 168//172
f 171//173 185//137 182//137 172//173
f 186//1 187//1 188//1 189//1
f 190//2 191//2 187//3 186//3
f 192//4 193//4 191//2 190//2
f 194//5 195//5 193//4 192//4
f 196//6 197//6 195//5 194//5
f 198//7 199//7 197//6 196//6
f 200//8 201//8 199//7 198//7
f 202//9 203//9 201//8 200//8
f 204//10 205//10 203//9 202//9
f 206//11 207//11 205//10 204//10
f 208//12 209//12 207//11 206//11
f 210//13 211//13 209//12 208//12
f 212//14 213//14 211//13 210//13
f 214//15 215//15 213//14 212//14
f 216//16 217//16 215//15 214//15
f 218//17 219//17 217//16 216//16
f 220//18 221//18 219//17 218//17
f 222//19 223//19 221//18 220//18
f 224//20 225//20 223//19 222//19
f 226//21 227//21 225//20 224//20
f 228//22 229//22 227//21 226//21
f 230//23 231//23 229//22 228//22
f 232//24 233//24 231//23 230//23
f 234//25 235//25 233//24 232//24
f 236//26 237//26 235//25 234//25
f 238//27 239//27 237//26 236//26
f 240//28 241//28 239//27 238//27
f 242//29 243//29 244//30 245//30
f 245//30 244//30 246//31 247//31
f 247//31 246//31 248//32 249//32
f 249//32 248//32 250//33 251//33
f 251//33 250//33 241//28 240//28
f 189//17 188//17 252//17 253//17
f 243//174 254//174 255//174 244//174
f 244//174 255//174 256//174 246//174
f 246//174 256//174 257//174 248//174
f 248//174 257//174 258//174 250//174
f 250//174 258//174 259//174 241//174
f 241//174 259//174 260//174 239//174
f 239//174 260//174 261//174 237//174
f 237//174 261//174 262//174 235//174
f 235//174 262//174 263//174 233//174
f 233//174 263//174 264//174 231//174
f 231//174 264//174 265//174 229//174
f 229//174 265//174 266//174 227//174
f 227//174 266//174 267//174 225//174
f 225//174 267//174 268//174 223//174
f 223//174 268//174 269//174 221//174
f 221//174 269//174 270//174 219//174
f 219//174 270//174 271//174 217//174
f 217//174 271//174 272//174 215//174
f 215//174 272//174 273//174 213//174
f 213//174 273//174 274//174 211//174
f 211//174 274//174 275//174 209//174
f 209//174 275//174 276//174 207//174
f 207//174 276//174 277//174 205//174
f 205//174 277//174 278//174 203//174
f 203//174 278//174 279//174 201//174
f 201//174 279//174 280//174 199//174
f 199//174 280//174 281//174 197//174
f 197//174 281//174 282//174 195//174
f 195//174 282//174 283//174 193//174
f 193//174 283//174 284//174 191//174
f 191//174 284//174 285//174 187//174
f 187//174 285//174 252//174 188//174
f 243//17 242//17 286//17 254//17
f 287//133 288//133 289//133 290//133
f 291//134 292//134 293//134 294//134
f 288//49 287//49 295//49 296//49
f 294//49 293//49 297//49 298//49
f 299//174 289//174 288//174 296//174
f 292//174 300//174 297//174 293//174
f 301//174 302//174 303//174 304//174
f 304//49 303//49 305//49 306//49
f 307//17 308//17 302//17 301//17
f 302//133 308//133 305//133 303//133
f 307//134 301//134 304//134 306//134
f 309//174 310//174 311//174 312//174
f 312//49 311//49 313//49 314//49
f 315//17 316//17 310//17 309//17
f 310//133 316//133 313//133 311//133
f 315//134 309//134 312//134 314//134
f 317//174 318//174 319//174 320//174
f 320//49 319//49 321//49 322//49
f 323//17 324//17 318//17 317//17
f 318//133 324//133 321//133 319//133
f 323//134 317//134 320//134 322//134
f 325//174 326//174 327//174 328//174
f 328//49 327//49 329//49 330//49
f 331//17 332//17 326//17 325//17
f 326//133 332//133 329//133 327//133
f 331//134 325//134 328//134 330//134
f 333//174 334//174 335//174 336//174
f 336//49 335//49 337//49 338//49
f 339//17 340//17 334//17 333//17
f 334//133 340//133 337//133 335//133
f 339//134 333//134 336//134 338//134
